<svg id="button--signIn" version="1.1" xmlns="http://www.w3.org/2000/svg" viewBox="0 0 210 40" xml:space="preserve"><defs><style>.cls-1{fill:none;}.cls-2{fill:#4385F4;}.cls-3{clip-path:url(#clip-path);}.cls-4{fill:#fff;}.cls-5{clip-path:url(#clip-path-2);}.cls-6{fill:#567dbe;}.cls-7{clip-path:url(#clip-path-3);}.cls-8{fill:#57a45c;}.cls-9{clip-path:url(#clip-path-4);}.cls-10{fill:#f1bd40;}.cls-11{clip-path:url(#clip-path-5);}.cls-12{fill:#d6513e;}</style><clipPath id="clip-path"><rect class="cls-1" x="0.97" y="0.92" width="38.16" height="38.16" rx="1.91"/></clipPath><clipPath id="clip-path-2"><path class="cls-1" d="M28.25,20.19a10.17,10.17,0,0,0-.19-1.72h-8v3.34h4.58a3.92,3.92,0,0,1-1.72,2.58v2.19h2.86A8.11,8.11,0,0,0,28.25,20.19Z"/></clipPath><clipPath id="clip-path-3"><path class="cls-1" d="M20.05,28.58a7.86,7.86,0,0,0,5.72-2.09L23,24.29a5.22,5.22,0,0,1-2.86.86,5,5,0,0,1-4.77-3.53H12.51v2.2A8.36,8.36,0,0,0,20.05,28.58Z"/></clipPath><clipPath id="clip-path-4"><path class="cls-1" d="M15.28,21.62a4.75,4.75,0,0,1,0-3.24v-2.2H12.42a8.31,8.31,0,0,0,0,7.64Z"/></clipPath><clipPath id="clip-path-5"><path class="cls-1" d="M20.05,14.85a4.55,4.55,0,0,1,3.24,1.33l2.48-2.48a8,8,0,0,0-5.72-2.19,8.61,8.61,0,0,0-7.63,4.77l2.86,2.19A5.23,5.23,0,0,1,20.05,14.85Z"/></clipPath></defs><title>Plan de travail 1</title><rect class="cls-2" width="210" height="40" rx="2.25"/><g class="cls-3"><rect class="cls-4" x="-3.8" y="-3.85" width="47.69" height="47.7"/></g><g class="cls-5"><rect class="cls-6" x="15.28" y="13.7" width="17.74" height="17.65"/></g><g class="cls-7"><rect class="cls-8" x="7.65" y="16.85" width="22.89" height="16.5"/></g><g class="cls-9"><rect class="cls-10" x="6.7" y="11.42" width="13.35" height="17.27"/></g><g class="cls-11"><rect class="cls-12" x="7.65" y="6.65" width="22.99" height="16.5"/></g><path class="cls-4" d="M63.45,22.47a1,1,0,0,0-.41-.89,5.23,5.23,0,0,0-1.47-.65,10.26,10.26,0,0,1-1.69-.68,2.78,2.78,0,0,1-1.7-2.47,2.36,2.36,0,0,1,.46-1.44,3,3,0,0,1,1.3-1A4.89,4.89,0,0,1,61.85,15a4.42,4.42,0,0,1,1.9.38,3,3,0,0,1,1.3,1.09,2.83,2.83,0,0,1,.46,1.6H63.46A1.33,1.33,0,0,0,63,17a1.79,1.79,0,0,0-1.21-.38,1.85,1.85,0,0,0-1.17.32,1,1,0,0,0-.42.83,1,1,0,0,0,.49.82,5.57,5.57,0,0,0,1.44.61,6.16,6.16,0,0,1,2.55,1.31,2.62,2.62,0,0,1,.8,1.94,2.41,2.41,0,0,1-1,2,4.27,4.27,0,0,1-2.63.73,5.1,5.1,0,0,1-2.09-.42,3.28,3.28,0,0,1-1.44-1.15,3,3,0,0,1-.5-1.7h2.06c0,1.1.66,1.65,2,1.65A1.89,1.89,0,0,0,63,23.3.94.94,0,0,0,63.45,22.47Z"/><path class="cls-4" d="M67.45,15.77a1,1,0,0,1,.3-.73,1.31,1.31,0,0,1,1.62,0,1.05,1.05,0,0,1,0,1.47,1.16,1.16,0,0,1-.81.29,1.12,1.12,0,0,1-.8-.29A1,1,0,0,1,67.45,15.77Zm2.1,9.32h-2v-7.4h2Z"/><path class="cls-4" d="M71.59,21.33a4.34,4.34,0,0,1,.81-2.74,2.64,2.64,0,0,1,2.19-1,2.29,2.29,0,0,1,1.89.84l.08-.7h1.79v7.15a3.11,3.11,0,0,1-.44,1.69,2.75,2.75,0,0,1-1.24,1.09A4.36,4.36,0,0,1,74.8,28a4,4,0,0,1-1.59-.33A2.84,2.84,0,0,1,72,26.84l.88-1.21a2.32,2.32,0,0,0,1.79.83A1.69,1.69,0,0,0,75.93,26a1.55,1.55,0,0,0,.44-1.19v-.4a2.29,2.29,0,0,1-1.8.77,2.59,2.59,0,0,1-2.15-1,4.33,4.33,0,0,1-.83-2.77Zm2,.15a2.7,2.7,0,0,0,.4,1.58,1.29,1.29,0,0,0,1.11.57A1.38,1.38,0,0,0,76.37,23V19.84a1.35,1.35,0,0,0-1.28-.68,1.28,1.28,0,0,0-1.11.58A3,3,0,0,0,73.57,21.48Z"/><path class="cls-4" d="M82.39,17.69l.06.85a2.59,2.59,0,0,1,2.13-1,2.16,2.16,0,0,1,1.75.69,3.25,3.25,0,0,1,.59,2.07v4.78h-2V20.35a1.3,1.3,0,0,0-.27-.91,1.24,1.24,0,0,0-.91-.28,1.35,1.35,0,0,0-1.25.71v5.22h-2v-7.4Z"/><path class="cls-4" d="M93.28,15.77a1,1,0,0,1,.3-.73,1.31,1.31,0,0,1,1.62,0,1.05,1.05,0,0,1,0,1.47,1.16,1.16,0,0,1-.81.29,1.12,1.12,0,0,1-.8-.29A1,1,0,0,1,93.28,15.77Zm2.1,9.32h-2v-7.4h2Z"/><path class="cls-4" d="M99.53,17.69l.06.85a2.59,2.59,0,0,1,2.13-1,2.16,2.16,0,0,1,1.75.69,3.25,3.25,0,0,1,.58,2.07v4.78h-2V20.35a1.3,1.3,0,0,0-.27-.91,1.24,1.24,0,0,0-.91-.28,1.35,1.35,0,0,0-1.25.71v5.22h-2v-7.4Z"/><polygon class="cls-4" points="116.87 22.4 117.84 17.69 119.75 17.69 117.86 25.09 116.21 25.09 114.81 20.43 113.41 25.09 111.76 25.09 109.87 17.69 111.78 17.69 112.74 22.39 114.1 17.69 115.52 17.69 116.87 22.4"/><path class="cls-4" d="M121.41,15.77a1,1,0,0,1,.3-.73,1.31,1.31,0,0,1,1.62,0,1,1,0,0,1,.3.73.94.94,0,0,1-.31.74,1.25,1.25,0,0,1-1.6,0A.94.94,0,0,1,121.41,15.77Zm2.1,9.32h-2v-7.4h2Z"/><path class="cls-4" d="M128.2,15.87v1.82h1.27v1.45H128.2v3.69a.92.92,0,0,0,.16.59.78.78,0,0,0,.6.18,3.3,3.3,0,0,0,.58-.05V25a3.94,3.94,0,0,1-1.19.18,1.88,1.88,0,0,1-2.12-2.1v-4h-1.08V17.69h1.08V15.87Z"/><path class="cls-4" d="M133.2,18.5a2.46,2.46,0,0,1,2-.95c1.61,0,2.42.93,2.44,2.8v4.74h-2V20.4a1.35,1.35,0,0,0-.28-.94,1.17,1.17,0,0,0-.91-.3,1.34,1.34,0,0,0-1.25.67v5.26h-2V14.58h2Z"/><path class="cls-4" d="M152,23.83a3.65,3.65,0,0,1-1.56,1,6.66,6.66,0,0,1-2.24.36,4.49,4.49,0,0,1-2.27-.56,3.74,3.74,0,0,1-1.5-1.64,5.67,5.67,0,0,1-.55-2.52v-.68a6.22,6.22,0,0,1,.5-2.58,3.77,3.77,0,0,1,1.45-1.67A4.24,4.24,0,0,1,148,15a4.17,4.17,0,0,1,2.77.84A3.56,3.56,0,0,1,152,18.3h-2a2,2,0,0,0-.61-1.25,1.9,1.9,0,0,0-1.29-.4,1.82,1.82,0,0,0-1.59.79,4.11,4.11,0,0,0-.55,2.33v.64a4,4,0,0,0,.59,2.36,2,2,0,0,0,1.74.81,2.26,2.26,0,0,0,1.65-.5V21.37h-1.86V19.86H152Z"/><path class="cls-4" d="M153.92,21.32a4.38,4.38,0,0,1,.42-2A3.11,3.11,0,0,1,155.56,18a3.61,3.61,0,0,1,1.85-.47,3.36,3.36,0,0,1,2.44.92A3.63,3.63,0,0,1,160.91,21v.5a3.82,3.82,0,0,1-.95,2.73,3.28,3.28,0,0,1-2.55,1,3.34,3.34,0,0,1-2.55-1,4,4,0,0,1-1-2.79Zm2,.14a2.72,2.72,0,0,0,.4,1.61,1.3,1.3,0,0,0,1.13.56,1.29,1.29,0,0,0,1.12-.55,3,3,0,0,0,.41-1.76,2.76,2.76,0,0,0-.41-1.61,1.4,1.4,0,0,0-2.25,0A3,3,0,0,0,155.89,21.46Z"/><path class="cls-4" d="M162.53,21.32a4.25,4.25,0,0,1,.43-2A3.11,3.11,0,0,1,164.18,18a3.58,3.58,0,0,1,1.85-.47,3.38,3.38,0,0,1,2.44.92A3.72,3.72,0,0,1,169.53,21v.5a3.86,3.86,0,0,1-.95,2.73,3.68,3.68,0,0,1-5.1,0,3.94,3.94,0,0,1-1-2.79Zm2,.14a2.72,2.72,0,0,0,.4,1.61,1.42,1.42,0,0,0,2.25,0,3,3,0,0,0,.4-1.76,2.76,2.76,0,0,0-.4-1.61,1.31,1.31,0,0,0-1.13-.57,1.27,1.27,0,0,0-1.12.57A3,3,0,0,0,164.51,21.46Z"/><path class="cls-4" d="M171.17,21.33a4.34,4.34,0,0,1,.81-2.74,2.63,2.63,0,0,1,2.18-1,2.29,2.29,0,0,1,1.9.84l.08-.7h1.79v7.15a3.2,3.2,0,0,1-.44,1.69,2.8,2.8,0,0,1-1.24,1.09,4.36,4.36,0,0,1-1.87.38,4,4,0,0,1-1.59-.33,2.84,2.84,0,0,1-1.17-.83l.88-1.21a2.3,2.3,0,0,0,1.79.83,1.69,1.69,0,0,0,1.22-.42,1.58,1.58,0,0,0,.44-1.19v-.4a2.31,2.31,0,0,1-1.8.77,2.61,2.61,0,0,1-2.16-1,4.33,4.33,0,0,1-.82-2.77Zm2,.15a2.7,2.7,0,0,0,.4,1.58,1.29,1.29,0,0,0,1.11.57A1.38,1.38,0,0,0,176,23V19.84a1.36,1.36,0,0,0-1.28-.68,1.29,1.29,0,0,0-1.12.58A3.07,3.07,0,0,0,173.15,21.48Z"/><rect class="cls-4" x="180.25" y="14.58" width="1.98" height="10.5"/><path class="cls-4" d="M188,25.22a3.64,3.64,0,0,1-2.65-1,3.54,3.54,0,0,1-1-2.66v-.19a4.58,4.58,0,0,1,.43-2A3.15,3.15,0,0,1,185.94,18a3.42,3.42,0,0,1,1.81-.48,3,3,0,0,1,2.38,1,3.89,3.89,0,0,1,.88,2.71V22H186.3a1.81,1.81,0,0,0,.57,1.16,1.77,1.77,0,0,0,1.22.44,2.15,2.15,0,0,0,1.79-.83l1,1.09a3,3,0,0,1-1.2,1A3.9,3.9,0,0,1,188,25.22Zm-.22-6.08a1.24,1.24,0,0,0-1,.4,2,2,0,0,0-.47,1.14h2.74v-.16a1.45,1.45,0,0,0-.35-1A1.28,1.28,0,0,0,187.74,19.14Z"/></svg>