<svg id="Calque_1" data-name="Calque 1" xmlns="http://www.w3.org/2000/svg" viewBox="0 0 300 300"><defs><style>.cls-1{fill:#b9d8f4;}.cls-2{fill:#96c8ef;}.cls-3{fill:#d1e7f8;}.cls-4{fill:#f56ad6;}.cls-5{fill:#f8625a;}.cls-6{fill:#6de2be;}.cls-7{fill:#3dd2a9;}.cls-8{fill:#ebfec0;}.cls-9{fill:#d7fc7e;}.cls-10{fill:#fff;}</style></defs><title>Plan de travail 2</title><path class="cls-1" d="M209.21,270.25H190.77V259.78c0-15.51,16.21-25.18,16.21-25.18H93.27s16.21,9.67,16.21,25.18v10.47H91A15.13,15.13,0,0,0,76,285.34h0A15.13,15.13,0,0,0,91,300.43H209.21a15.13,15.13,0,0,0,15.09-15.09h0A15.13,15.13,0,0,0,209.21,270.25Z"/><path class="cls-2" d="M93.42,285.34a15.13,15.13,0,0,1,15.09-15.09H91a15.09,15.09,0,0,0,0,30.18h17.47A15.13,15.13,0,0,1,93.42,285.34Z"/><path class="cls-2" d="M109.48,259.78v4.37a114.6,114.6,0,0,0,81.29,0v-4.37c0-15.51,16.21-25.18,16.21-25.18H93.27S109.48,244.27,109.48,259.78Z"/><path class="cls-3" d="M233.93,44.8H66.31A12.57,12.57,0,0,0,53.74,57.37v99.45a96.38,96.38,0,0,0,192.76,0V57.38A12.56,12.56,0,0,0,233.93,44.8Z"/><path class="cls-1" d="M110.08,156.82V57.38A12.57,12.57,0,0,1,122.65,44.8H66.31A12.57,12.57,0,0,0,53.74,57.38v99.44A96.4,96.4,0,0,0,178.29,249,96.55,96.55,0,0,1,110.08,156.82Z"/><circle class="cls-4" cx="110.07" cy="92.8" r="19.62"/><circle class="cls-5" cx="132.59" cy="87.28" r="19.62"/><path class="cls-6" d="M210.37,95.79c-7.25,17.89-24.27,27.87-38,22.3S153.29,93.5,160.53,75.61s42.9-73.9,56.66-68.33S217.61,77.9,210.37,95.79Z"/><path class="cls-7" d="M160.53,75.61c-7.24,17.89-2,36.91,11.8,42.48L217.19,7.28C203.43,1.71,167.77,57.72,160.53,75.61Z"/><path class="cls-6" d="M193.31,79.31c3.07,19.06-6.32,36.42-21,38.78s-29-11.17-32.1-30.22S138.65,2.43,153.31.07,190.24,60.26,193.31,79.31Z"/><path class="cls-7" d="M140.23,87.87c3.08,19,17.45,32.59,32.1,30.22a21.06,21.06,0,0,0,2.64-.6L153.31.07C138.65,2.43,137.16,68.82,140.23,87.87Z"/><path class="cls-8" d="M218.68,95.7H81.57a9.44,9.44,0,0,0-9.44,9.43v51.69a78,78,0,0,0,156,0V105.13A9.43,9.43,0,0,0,218.68,95.7Z"/><path class="cls-9" d="M81.57,95.7a9.44,9.44,0,0,0-9.44,9.43v51.69a78.09,78.09,0,0,0,77.76,78,96.31,96.31,0,0,1-39.81-78V95.7Z"/><path class="cls-10" d="M218.68,95.7H81.57a9.44,9.44,0,0,0-9.44,9.43v36.11h156V105.13A9.43,9.43,0,0,0,218.68,95.7Z"/><path class="cls-8" d="M81.57,95.7a9.44,9.44,0,0,0-9.44,9.43v36.11h38V95.7Z"/><path class="cls-9" d="M196.42,194.58a4.74,4.74,0,0,1-1.14-6.4,55,55,0,0,0,3.25-5.28,4.6,4.6,0,1,1,8.09,4.37,65,65,0,0,1-3.79,6.17C201.93,194.72,199,196.72,196.42,194.58Z"/><path class="cls-9" d="M156.39,216.27a4.6,4.6,0,0,1,3.69-5.36A54.93,54.93,0,0,0,186,198.46a4.6,4.6,0,0,1,6,7A64.19,64.19,0,0,1,161.75,220,4.29,4.29,0,0,1,156.39,216.27Z"/></svg>