---
---
<svg version="1.1" xmlns="http://www.w3.org/2000/svg" viewBox="0 0 24 24" xml:space="preserve"><path style="fill:{{ site.data.theme.theme_color-default.font_color }}" d="M18.72,6.88a2.86,2.86,0,0,0-2.8,1.85V1.18h-5.2v.39h1.19v10.1a4,4,0,0,1,1.56.41,3.94,3.94,0,0,1,2.14,3.25h0a6.54,6.54,0,0,0,.18.76,1.76,1.76,0,0,0,.81,1.14,3.46,3.46,0,0,0,1.71.35,4.17,4.17,0,0,0,3.34-1.3,6.1,6.1,0,0,0,1.11-4Q22.76,6.88,18.72,6.88Zm-.13,5.8A14.71,14.71,0,0,1,18.34,16c-.18.63-.5.95-1,.95a1.19,1.19,0,0,1-1.08-.65,3.07,3.07,0,0,1-.38-1.57v-4a4,4,0,0,1,.5-2.14,1.37,1.37,0,0,1,1.12-.78c.41,0,.7.26.84.77a13.64,13.64,0,0,1,.21,3Z"/><path style="fill:{{ site.data.theme.theme_color-default.font_color }}" d="M8.47,6.42V14a2.86,2.86,0,0,1,2.81-1.85q4,0,4,5.37a6.08,6.08,0,0,1-1.11,4,4.13,4.13,0,0,1-3.33,1.3,3.48,3.48,0,0,1-1.72-.35,1.83,1.83,0,0,1-.81-1.14L8.19,22.6H3.27v-.39H4.46V6.81H3.27V6.42Zm2.46,7.39c-.14-.51-.42-.76-.84-.76A1.36,1.36,0,0,0,9,13.82,4,4,0,0,0,8.47,16v4a3.07,3.07,0,0,0,.38,1.57,1.17,1.17,0,0,0,1.08.65c.47,0,.79-.31,1-1a14.55,14.55,0,0,0,.26-3.32V16.8A13.44,13.44,0,0,0,10.93,13.81Z"/></svg>