---
---
<svg xmlns="http://www.w3.org/2000/svg" viewBox="0 0 500 300"><defs><style>.cls-1{fill:{{ site.data.taxonomies.theme-colors.font_color }};}</style></defs><g id="bisou"><path class="cls-1" d="M65.26,142.77v50.56Q70.75,180.91,84,180.91q27,0,27,36,0,18.35-7.44,27t-22.32,8.67q-7.51,0-11.48-2.31a12,12,0,0,1-5.42-7.66l-1,8.53H30.44v-2.6h8V145.37H30.44v-2.6Zm16.47,49.48q-1.45-5.13-5.64-5.13t-7.51,5.2q-3.33,5.2-3.32,14.3v26.87A20.68,20.68,0,0,0,67.78,244,8,8,0,0,0,75,248.37q4.69,0,6.43-6.35t1.73-22.25v-7.51Q83.17,197.38,81.73,192.25Z"/><path class="cls-1" d="M114.81,182.35H150.2v66.17h8.09v2.6H115.38v-2.6h8V185h-8.52Z"/><path class="cls-1" d="M164.5,252.56V226.7h1.73q3.77,12.57,10.11,17.63t15.9,5Q207,249.38,207,240a6.55,6.55,0,0,0-3.61-6.06A48.75,48.75,0,0,0,188.91,229a56.4,56.4,0,0,1-16.47-6.93q-7.94-5.21-7.94-16.47t6.93-18q6.94-6.72,18.49-6.72a36,36,0,0,1,14.59,3.32,12.06,12.06,0,0,0,4.19,1.16,3.37,3.37,0,0,0,2.46-1,17.22,17.22,0,0,0,2.46-3.76h1.58v22.1h-1.73q-7.36-18.78-22.82-18.78-6.79,0-10.12,2.39a7.12,7.12,0,0,0-3.32,6,5.24,5.24,0,0,0,1,3.4c.68.81,1.21,1.42,1.59,1.8a7.23,7.23,0,0,0,1.88,1.23c.87.43,1.59.77,2.17,1s1.46.56,2.67.94a19.24,19.24,0,0,0,2.67.72,111.35,111.35,0,0,1,14.16,4.26,48.93,48.93,0,0,1,8.23,4.41q7.95,5.49,7.95,17.7t-7.23,18.49q-7.22,6.28-19.79,6.28a38.32,38.32,0,0,1-17.33-4.19,5.55,5.55,0,0,0-2.75-1.15q-3.18,0-6.21,5.34Z"/><path class="cls-1" d="M234.27,243.31q-9.24-9.24-9.24-26.5t9.89-26.58q9.9-9.33,27.81-9.32t26.73,8.59q8.81,8.61,8.81,26.22,0,36.84-36.7,36.84Q243.51,252.56,234.27,243.31Zm36.26-20.65V210.38q0-14-1.52-20.44t-7-6.43a7.26,7.26,0,0,0-5.13,1.8q-1.95,1.81-2.82,6-1.29,6.49-1.3,19.79v11.27q0,15.75.94,18.92a32.77,32.77,0,0,0,2,5.2q1.59,3.47,6.21,3.47,5.64,0,7.37-6.5Q270.54,238.84,270.53,222.66Z"/><path class="cls-1" d="M386.82,251.12H353.88l-1.58-10.55a18.93,18.93,0,0,1-6.87,8.88q-4.55,3.11-13.5,3.11-22.4,0-22.39-24.12V185h-8.09v-2.6H336.4V231.9q0,8.67,1.23,11.41c.82,1.84,2.46,2.75,4.91,2.75s4.65-1.49,6.58-4.48,2.89-7.12,2.89-12.42V185h-6.65v-2.6h33.52v66.17h7.94Z"/></g><g id="boozy"><path class="cls-1" d="M114.2,48.25V98.81Q119.67,86.39,133,86.39q27,0,27,36,0,18.35-7.44,27T130.23,158q-7.51,0-11.48-2.31a12,12,0,0,1-5.42-7.66l-1,8.52H79.38V154h8V50.85h-8v-2.6Zm16.46,49.48Q129.22,92.6,125,92.6t-7.51,5.2q-3.33,5.2-3.32,14.3V139a20.68,20.68,0,0,0,2.52,10.55,8,8,0,0,0,7.23,4.33c3.12,0,5.27-2.12,6.42-6.36s1.74-11.65,1.74-22.24v-7.52Q132.11,102.86,130.66,97.73Z"/><path class="cls-1" d="M174.72,148.79q-9.24-9.24-9.24-26.5t9.89-26.59q9.9-9.32,27.81-9.31T229.91,95q8.81,8.59,8.81,26.22Q238.72,158,202,158,184,158,174.72,148.79ZM211,128.14V115.86q0-14-1.51-20.44t-7-6.43a7.26,7.26,0,0,0-5.13,1.8q-2,1.81-2.81,6-1.31,6.49-1.31,19.79v11.27q0,15.75.94,18.92a33.15,33.15,0,0,0,1.95,5.2q1.59,3.47,6.22,3.47,5.63,0,7.36-6.5Q211,144.32,211,128.14Z"/><path class="cls-1" d="M253.17,148.79q-9.25-9.24-9.25-26.5t9.9-26.59q9.89-9.32,27.8-9.31T308.35,95q8.81,8.59,8.81,26.22,0,36.84-36.69,36.84Q262.41,158,253.17,148.79Zm36.25-20.65V115.86q0-14-1.51-20.44t-7-6.43a7.26,7.26,0,0,0-5.13,1.8q-1.95,1.81-2.81,6-1.31,6.49-1.3,19.79v11.27q0,15.75.94,18.92a31.26,31.26,0,0,0,1.95,5.2q1.57,3.47,6.21,3.47,5.63,0,7.37-6.5Q289.42,144.32,289.42,128.14Z"/><path class="cls-1" d="M386.94,87.83v2.6L352.7,154h1.88q12.14,0,19.07-6.35T384.48,127h2l-2.31,29.61H323.52v-2.16l34.81-64h-1.59q-14.58,0-20.29,4.77t-10.19,20.37h-1.87l1.87-27.74Z"/><path class="cls-1" d="M392.71,90.43v-2.6h41.9v2.6h-7.8l15.74,48,16.76-48h-9.68v-2.6H470v2.6h-7.22l-27,77.87q-4.77,13.57-10.69,19a20.63,20.63,0,0,1-14.44,5.42c-5.69,0-10.16-1.3-13.44-3.9a12.19,12.19,0,0,1-4.91-10c0-4,1.06-7.13,3.18-9.24a11.32,11.32,0,0,1,8.38-3.18q12,0,12,10a19.43,19.43,0,0,1-.87,5.2H409.9a7.85,7.85,0,0,0-.28,5.49q.86,2.16,3.9,2.16,5.91,0,10.54-5.85t8.81-17.84l3.18-9H423.34l-24.7-66.16Z"/></g></svg>