---
---
<svg version="1.1" xmlns="http://www.w3.org/2000/svg" viewBox="0 0 24 24" xml:space="preserve"><path style="fill:{{ site.data.theme.theme_color-default.font_color }}" d="M13.44,20.52V18.84a.84.84,0,0,1,.08-.3l5.89-13.1a.07.07,0,0,0,0-.09.08.08,0,0,0-.07,0H13.69a.22.22,0,0,1-.25-.25V3.49a.22.22,0,0,1,.25-.25H21.8c.17,0,.26.08.26.25V5.17a1.11,1.11,0,0,1-.08.3l-5.92,13.1a.06.06,0,0,0,0,.08.07.07,0,0,0,.07,0H21.8a.23.23,0,0,1,.26.25v1.58c0,.17-.09.25-.26.25H13.69A.22.22,0,0,1,13.44,20.52Z"/><path style="fill:{{ site.data.theme.theme_color-default.font_color }}" d="M9.88,20.55l-.56-2.88a.08.08,0,0,0,0-.08.12.12,0,0,0-.09,0H5.05a.16.16,0,0,0-.09,0,.1.1,0,0,0,0,.08l-.53,2.88c0,.15-.11.22-.28.22H2.18A.22.22,0,0,1,2,20.7a.23.23,0,0,1,0-.2l3.79-17A.25.25,0,0,1,6,3.24H8.28c.17,0,.26.07.28.22l3.81,17v.05c0,.15-.07.22-.23.22h-2A.26.26,0,0,1,9.88,20.55ZM5.43,15.66H8.81s.08,0,.08-.1L7.16,6.67s0,0,0,0,0,0-.05,0l-1.7,8.89C5.36,15.63,5.38,15.66,5.43,15.66Z"/></svg>