<svg version="1" xmlns="http://www.w3.org/2000/svg" width="933.333" height="933.333" viewBox="0 0 700.000000 700.000000"><path d="M309.4 60.4c-.3.8-.4 3.1-.2 5.2l.3 3.9 15.7.3 15.8.3.2 134.2.3 134.2 7 .8c17 1.8 38.9 10.7 52.5 21.3 9.4 7.4 18.8 19.4 25 31.9 6.3 12.8 9.1 21.6 13.5 42.6 6.9 32.5 12 42.4 26.8 51.2 18.5 11.2 61.6 12.3 91.7 2.5 31.1-10.1 53.6-34.3 63.4-68 6.4-22 8.1-36.4 8.1-67.8-.1-33-2.6-52.2-9.6-73.2-11.9-35.5-33.3-56.7-66.4-65.5-9-2.3-11.8-2.6-28.5-2.7-16.4-.1-19.4.2-26.3 2.2-20.6 5.9-35.8 18.4-46.6 38.2l-4.1 7.5V59h-69c-58.2 0-69.1.2-69.6 1.4zm191.4 177.5c4.6 2.3 6.3 4.3 9.4 10.6 6.4 13 7.8 27.6 8.5 88 1 96-3.6 128.2-20 138.9-10.2 6.6-26 3.6-35.6-6.8-4.8-5.3-10.2-16.1-12.8-25.8-1.5-5.6-1.7-14.1-2.1-72.3-.4-70.8 0-79.2 4.4-94.4 5-16.9 15.7-32.1 26.7-37.5 6.5-3.3 15.9-3.6 21.5-.7z"/><path d="M111 204v5h32v410h-32v10h131l.5-2.3c.2-1.2.9-6.7 1.5-12.2.6-5.5 1.3-11.7 1.6-13.9l.6-3.8 2.3 5.6c6.6 16.3 16.6 24.7 35.3 29.8 6.7 1.9 10.5 2.2 29.2 2.2 16.8.1 23.4-.3 30.2-1.7 38.3-7.7 62.3-27.2 76.3-61.9 16.8-41.9 16.1-118.9-1.5-161.3-9.8-23.3-27.5-42.1-47.6-50.5-21.5-8.9-49.4-11.1-70.8-5.5-18.7 4.9-35.1 18.4-45.5 37.5l-4.1 7.5V199H111v5zm193.4 174.7c8.1 5.6 12.1 17.5 14.8 43.8 1.8 18 1.8 115.6 0 135.5-4.1 44.7-12.1 60.2-31.2 60.1-16.9 0-28.3-10.8-35.2-33.1-2.2-7.5-2.2-7.9-2.6-76.5-.4-82.7 0-86.8 9.3-106 6.5-13.4 15.2-22.4 25.4-26.2 5.7-2.1 14.6-1 19.5 2.4z"/></svg>